<svg xmlns="http://www.w3.org/2000/svg" viewBox="0 0 106.61 107.8">
    <defs>
        <style>.cls-1{fill:#EEEEEE;}.cls-2{fill:#FA5D5D;}.cls-3{fill:#EEEEEE;}
        </style>
    </defs>
    <title>Logo</title>
    <g id="Camada_2" data-name="Camada 2">
        <path class="cls-1" d="M87.82,18.53a63.56,63.56,0,0,0-25.31-5,43.25,43.25,0,0,0-11.93,1.89c-.47.15-.95.25-1.41.43l-1.38.53a23.13,23.13,0,0,0-2.72,1.11c-.88.44-1.78.82-2.63,1.29s-1.67,1-2.52,1.45A46.12,46.12,0,0,0,24.35,36.8a46.64,46.64,0,0,0-4.21,10.47,39.59,39.59,0,0,0-1.47,11.07,42.61,42.61,0,0,0,5.52,21.47A47.91,47.91,0,0,0,39.76,96.58a52.42,52.42,0,0,0,5.11,2.93,26.14,26.14,0,0,0,2.7,1.21,27.38,27.38,0,0,0,2.77,1.08,46,46,0,0,0,11.89,2.48,59.45,59.45,0,0,0,12.68-.37,71.18,71.18,0,0,0,12.91-3A39.69,39.69,0,0,1,82.3,105c-1,.62-2,1.15-3,1.72s-2.07,1-3.14,1.53a52,52,0,0,1-13.62,3.94,50.21,50.21,0,0,1-28.88-4.56c-1.11-.58-2.24-1.13-3.34-1.75l-3.22-2c-1-.72-2.05-1.48-3.07-2.22S22.08,100,21.1,99.22A55.24,55.24,0,0,1,4.77,73.62a56.77,56.77,0,0,1-2.1-15.38A54.21,54.21,0,0,1,5,42.94a56.86,56.86,0,0,1,6.42-14A53.74,53.74,0,0,1,34.1,9.15a49.21,49.21,0,0,1,14.48-4c1.24-.1,2.47-.3,3.71-.3s2.48,0,3.7,0l3.66.32c1.21.14,2.41.37,3.6.58a51.07,51.07,0,0,1,13.38,4.75c1,.54,2.05,1.11,3,1.71s2,1.22,2.89,1.91A39.18,39.18,0,0,1,87.82,18.53Z" transform="translate(-2.67 -4.85)"/>
        <path class="cls-2" d="M49.94,95.65A61.52,61.52,0,0,0,67,91.56a46.75,46.75,0,0,0,7.22-3.72c1.1-.78,2.2-1.45,3.24-2.28s2.07-1.68,3.06-2.56A54.12,54.12,0,0,0,86,77.39a41.93,41.93,0,0,0,4.11-6.08,33.06,33.06,0,0,0,1.43-3.18l.3-.79a3.85,3.85,0,0,0,.27-.81l.46-1.61a13.19,13.19,0,0,0,.32-1.64,13,13,0,0,0,.26-1.64c0-1.12.23-2.22.16-3.35a26.73,26.73,0,0,0-3.73-12.93,46.87,46.87,0,0,0-9.83-11.65c-1-.86-2-1.73-3-2.45-.43-.33-1-.71-1.57-1.07s-1.1-.7-1.67-1a42.05,42.05,0,0,0-7.34-3.4,59.65,59.65,0,0,0-17.24-3.17,33,33,0,0,1,8.81-3.46A38.89,38.89,0,0,1,67.38,18a39.7,39.7,0,0,1,10,1.4,23.88,23.88,0,0,1,2.46.73c.82.31,1.58.54,2.47.92a49.54,49.54,0,0,1,4.61,2.31,47.86,47.86,0,0,1,15.39,13.72,37.23,37.23,0,0,1,7,20.92,46.4,46.4,0,0,1-.34,5.64,27.09,27.09,0,0,1-.51,2.78l-.3,1.38a7.82,7.82,0,0,1-.38,1.36,34.87,34.87,0,0,1-2,5.24A37.53,37.53,0,0,1,103,79.2a45.54,45.54,0,0,1-7,8,50.65,50.65,0,0,1-8.28,6,47.55,47.55,0,0,1-4.49,2.31,43.85,43.85,0,0,1-4.77,1.84,41.22,41.22,0,0,1-9.87,1.81,39.29,39.29,0,0,1-9.72-.62A34.15,34.15,0,0,1,49.94,95.65Z" transform="translate(-2.67 -4.85)"/>
        </g><g id="Camada_4" data-name="Camada 4"><ellipse class="cls-3" cx="45.66" cy="44" rx="8.04" ry="5.48" transform="translate(-13.39 68.16) rotate(-71.17)"/>
        <ellipse class="cls-3" cx="70.84" cy="67.6" rx="8.04" ry="5.48" transform="translate(-20.7 21.63) rotate(-18.83)"/>
        <ellipse class="cls-3" cx="72.87" cy="51.52" rx="8.81" ry="6.24" transform="translate(-18.99 43.39) rotate(-33.15)"/>
        <ellipse class="cls-3" cx="62.18" cy="40.96" rx="8.81" ry="6.24" transform="translate(-8.79 65.76) rotate(-56.85)"/>
        <path class="cls-3" d="M32.86,61.87a5.32,5.32,0,0,0,1,3.17c1,1.56,2.44,2.12,4.56,3.15,3.21,1.56,4.81,2.34,5.69,3.1,3.85,3.32,2.16,7.77,6.17,10.25a4.83,4.83,0,0,0,3.22.94c4.59-.68,6-10.84,6.19-12,.46-3.47,1.26-9.43-2.56-13.23a11.87,11.87,0,0,0-5.93-3,15.86,15.86,0,0,0-8.4.66C40.79,55.55,33.21,57.75,32.86,61.87Z" transform="translate(-2.67 -4.85)"/>
    </g>
</svg>